<svg width="15" height="15" viewBox="0 0 15 15" fill="none" xmlns="http://www.w3.org/2000/svg">
<path d="M15 0.833867V7.49999C15 7.721 14.9436 7.93297 14.8431 8.08925C14.7426 8.24553 14.6064 8.33332 14.4643 8.33332C14.3222 8.33332 14.1859 8.24553 14.0855 8.08925C13.985 7.93297 13.9286 7.721 13.9286 7.49999V2.84521L8.41455 11.4226C8.31407 11.5788 8.17781 11.6666 8.03572 11.6666C7.89363 11.6666 7.75737 11.5788 7.65689 11.4226L5.35715 7.8452L0.914558 14.7559C0.814095 14.9122 0.677833 15 0.535749 15C0.393666 15 0.257399 14.9122 0.156927 14.7559C0.0564545 14.5997 6.1564e-06 14.3877 5.03545e-10 14.1667C-6.1554e-06 13.9457 0.0564304 13.7337 0.156894 13.5774L4.97832 6.07742C5.0788 5.92114 5.21507 5.83335 5.35715 5.83335C5.49924 5.83335 5.6355 5.92114 5.73598 6.07742L8.03572 9.65478L13.1709 1.66666H10.1786C10.0365 1.66666 9.90024 1.57887 9.79977 1.42259C9.69931 1.26631 9.64286 1.05435 9.64286 0.833332C9.64286 0.612319 9.69931 0.400358 9.79977 0.244078C9.90024 0.0877974 10.0365 0 10.1786 0H14.4643C14.4663 0 14.4682 0.000432366 14.4702 0.000457366C14.4858 0.000737574 14.5014 0.00175532 14.517 0.0041449C14.5256 0.00544282 14.534 0.0079344 14.5425 0.00986774C14.5513 0.0118761 14.5601 0.013428 14.5688 0.0161238C14.5782 0.0190228 14.5874 0.0229895 14.5966 0.026652C14.6043 0.0297041 14.612 0.0322977 14.6196 0.0358831C14.6286 0.040105 14.6373 0.0453189 14.6461 0.0502522C14.6538 0.0545762 14.6616 0.0585177 14.6692 0.063426C14.6773 0.0686343 14.685 0.0747428 14.6929 0.0805667C14.7009 0.0864157 14.7089 0.0919083 14.7167 0.0984187C14.7242 0.104624 14.7313 0.111695 14.7385 0.118433C14.7463 0.125656 14.7542 0.132496 14.7617 0.140381C14.7696 0.148519 14.7769 0.157623 14.7845 0.166372C14.791 0.173899 14.7976 0.180919 14.8039 0.188954C14.8164 0.204875 14.8283 0.221786 14.8398 0.239359C14.8408 0.241037 14.842 0.242411 14.8431 0.244089C14.8445 0.246226 14.8456 0.24859 14.847 0.250756C14.8579 0.268152 14.8685 0.286105 14.8785 0.30495C14.884 0.315428 14.8889 0.326464 14.894 0.337247C14.8993 0.348259 14.9048 0.358991 14.9097 0.37041C14.9151 0.382972 14.9198 0.396019 14.9247 0.408938C14.9287 0.419365 14.9329 0.429512 14.9366 0.440218C14.9411 0.453343 14.945 0.46682 14.949 0.480218C14.9524 0.49151 14.9561 0.502572 14.9591 0.514143C14.9626 0.527139 14.9654 0.540393 14.9684 0.553562C14.9713 0.566048 14.9744 0.578353 14.9769 0.591123C14.9794 0.604424 14.9814 0.617953 14.9835 0.631406C14.9856 0.644323 14.9879 0.657042 14.9896 0.670215C14.9916 0.685932 14.9928 0.7018 14.9943 0.717644C14.9952 0.728732 14.9966 0.739617 14.9973 0.750832C14.9991 0.778451 15 0.806129 15 0.833867Z" fill="#D2D2D2" fill-opacity="0.7"/>
</svg>
