<svg width="15" height="15" viewBox="0 0 15 15" fill="none" xmlns="http://www.w3.org/2000/svg">
<path d="M14.5019 7C14.3975 6.99921 14.2958 6.96045 14.2112 6.88912L7.48396 1.29864L0.756733 6.88912C0.648807 6.96353 0.52084 6.98814 0.398093 6.95808C0.275346 6.92802 0.16674 6.84548 0.093714 6.72676C0.0206882 6.60804 -0.0114499 6.46176 0.00364396 6.3168C0.0187379 6.17184 0.0799669 6.03873 0.175244 5.94376L7.19321 0.108182C7.27811 0.0378142 7.37974 0 7.48396 0C7.58818 0 7.6898 0.0378142 7.7747 0.108182L14.7927 5.94376C14.8783 6.01589 14.9421 6.11765 14.975 6.23453C15.008 6.3514 15.0083 6.4774 14.9761 6.59453C14.9438 6.71167 14.8806 6.81394 14.7955 6.88676C14.7103 6.95958 14.6076 6.99921 14.5019 7Z" fill="white"/>
<path d="M1.5 3C1.36739 3 1.24021 2.94732 1.14645 2.85355C1.05268 2.75979 1 2.63261 1 2.5V0.5C1 0.367392 1.05268 0.240215 1.14645 0.146447C1.24021 0.0526784 1.36739 0 1.5 0H3.5C3.63261 0 3.75979 0.0526784 3.85355 0.146447C3.94732 0.240215 4 0.367392 4 0.5C4 0.632608 3.94732 0.759785 3.85355 0.853553C3.75979 0.947321 3.63261 1 3.5 1H2V2.5C2 2.63261 1.94732 2.75979 1.85355 2.85355C1.75979 2.94732 1.63261 3 1.5 3Z" fill="white"/>
<path d="M11.5 15H9C8.86739 15 8.74021 14.9398 8.64645 14.8326C8.55268 14.7255 8.5 14.5801 8.5 14.4286V10.4286H5.5V14.4286C5.5 14.5801 5.44732 14.7255 5.35355 14.8326C5.25979 14.9398 5.13261 15 5 15H2.5C2.10218 15 1.72064 14.8194 1.43934 14.4979C1.15804 14.1764 1 13.7404 1 13.2857V7.57143C1 7.41988 1.05268 7.27453 1.14645 7.16737C1.24021 7.0602 1.36739 7 1.5 7C1.63261 7 1.75979 7.0602 1.85355 7.16737C1.94732 7.27453 2 7.41988 2 7.57143V13.2857C2 13.4373 2.05268 13.5826 2.14645 13.6898C2.24021 13.7969 2.36739 13.8571 2.5 13.8571H4.5V9.85714C4.5 9.70559 4.55268 9.56025 4.64645 9.45308C4.74021 9.34592 4.86739 9.28571 5 9.28571H9C9.13261 9.28571 9.25979 9.34592 9.35355 9.45308C9.44732 9.56025 9.5 9.70559 9.5 9.85714V13.8571H11.5C11.6326 13.8571 11.7598 13.7969 11.8536 13.6898C11.9473 13.5826 12 13.4373 12 13.2857V7.57143C12 7.41988 12.0527 7.27453 12.1464 7.16737C12.2402 7.0602 12.3674 7 12.5 7C12.6326 7 12.7598 7.0602 12.8536 7.16737C12.9473 7.27453 13 7.41988 13 7.57143V13.2857C13 13.7404 12.842 14.1764 12.5607 14.4979C12.2794 14.8194 11.8978 15 11.5 15V15Z" fill="white"/>
</svg>
