<svg width="29" height="25" viewBox="0 0 29 25" fill="none" xmlns="http://www.w3.org/2000/svg">
<path d="M4.382 22.42C4.44531 23.355 6.00679 24.04 8.22241 24.47C8.24351 24.475 8.26461 24.48 8.28571 24.485C9.19306 24.66 10.2059 24.785 11.275 24.87C11.2891 24.87 11.2961 24.875 11.3102 24.875C11.3172 24.875 11.3243 24.875 11.3243 24.875C12.3512 24.955 13.4203 25 14.4894 25C14.4965 25 14.4965 25 14.5035 25C14.5106 25 14.5106 25 14.5176 25C15.5867 25 16.6558 24.955 17.6828 24.875C17.6898 24.875 17.6898 24.875 17.6968 24.875C17.7039 24.875 17.7179 24.87 17.725 24.87C18.7941 24.785 19.814 24.655 20.7213 24.48C20.7354 24.475 20.7565 24.475 20.7706 24.47C22.9932 24.04 24.5547 23.355 24.618 22.42L26.6367 15.55C26.714 15.28 26.4749 15.015 26.0951 14.96C25.7082 14.905 25.3425 15.075 25.2651 15.345L23.2324 22.255C23.2253 22.29 23.2183 22.325 23.2183 22.355C23.2183 22.605 22.5853 22.965 21.3825 23.28L24.1819 10.23C25.2792 9.995 26.2498 9.71 27.0235 9.385L25.7715 13.63C25.6942 13.9 25.9333 14.165 26.3131 14.22C26.3624 14.225 26.4116 14.23 26.4608 14.23C26.7844 14.23 27.0798 14.07 27.1501 13.835L28.8593 8.02C28.9508 7.845 29 7.665 29 7.475C29 6.59 28.1982 5.825 27.0657 5.545C27.0657 5.535 27.0657 5.525 27.0657 5.515C27.0657 4.38 25.7434 3.47 24.1608 3.475C23.8443 2.59 22.7189 1.935 21.3755 1.935C21.2559 1.935 21.1433 1.94 21.0308 1.95C20.6088 1.185 19.5748 0.66 18.3721 0.66C17.8516 0.66 17.3522 0.76 16.9231 0.94C16.4026 0.37 15.5093 0 14.4965 0C13.4836 0 12.5903 0.37 12.0769 0.945C11.6408 0.76 11.1484 0.665 10.6279 0.665C9.41814 0.665 8.38419 1.19 7.9692 1.955C7.85666 1.945 7.73708 1.94 7.62454 1.94C6.28111 1.94 5.15571 2.595 4.83919 3.48C4.82513 3.48 4.81809 3.48 4.80403 3.48C3.22144 3.48 1.93427 4.395 1.93427 5.52C1.93427 5.53 1.93427 5.54 1.93427 5.55C0.808877 5.83 0 6.595 0 7.48C0 7.665 0.0492359 7.845 0.140674 8.02L4.382 22.42ZM5.78875 22.36C5.78875 22.325 5.78171 22.29 5.77468 22.255L1.98351 9.385C2.75722 9.71 3.72787 9.995 4.82513 10.23L7.62454 23.28C6.42178 22.97 5.78875 22.61 5.78875 22.36ZM18.4776 10.985L17.0286 23.915C16.4519 23.95 15.847 23.975 15.1928 23.99V11.12C16.2971 11.105 17.4014 11.06 18.4776 10.985ZM13.7931 23.99C13.146 23.98 12.5341 23.955 11.9573 23.915L10.5084 10.985C11.5845 11.06 12.6888 11.105 13.7931 11.115V23.99ZM9.08756 10.87L10.5365 23.795C10.023 23.74 9.54475 23.675 9.10866 23.6L6.30221 10.515C7.18142 10.655 8.1169 10.775 9.08756 10.87ZM19.8843 23.6C19.4482 23.675 18.977 23.74 18.4565 23.795L19.9054 10.87C20.8761 10.775 21.8115 10.66 22.6908 10.515L19.8843 23.6ZM2.77832 6.44C2.98933 6.43 3.18627 6.35 3.30585 6.23C3.42542 6.11 3.46762 5.95 3.40432 5.805C3.36211 5.695 3.34101 5.6 3.34101 5.52C3.34101 4.945 3.99515 4.48 4.80403 4.48C4.93767 4.48 5.07834 4.5 5.24715 4.535C5.4652 4.585 5.71138 4.555 5.89425 4.455C6.07713 4.355 6.18263 4.195 6.16857 4.03C6.16857 4.005 6.16153 3.975 6.1545 3.975C6.1545 3.4 6.80863 2.935 7.61751 2.935C7.81445 2.935 8.0114 2.965 8.19428 3.02C8.39825 3.085 8.6374 3.075 8.83434 2.99C9.03129 2.905 9.1579 2.765 9.179 2.605C9.24933 2.065 9.8683 1.66 10.6279 1.66C11.0922 1.66 11.5212 1.815 11.8026 2.085C11.9714 2.245 12.2598 2.32 12.5341 2.275C12.8084 2.23 13.0194 2.07 13.0616 1.87C13.1741 1.365 13.779 1 14.4965 1C15.2139 1 15.8188 1.365 15.9314 1.875C15.9806 2.075 16.1846 2.235 16.4589 2.28C16.7332 2.325 17.0216 2.255 17.1904 2.09C17.4717 1.82 17.9008 1.665 18.365 1.665C19.1176 1.665 19.7436 2.07 19.814 2.61C19.8351 2.77 19.9617 2.915 20.1586 2.995C20.3556 3.075 20.5877 3.085 20.7987 3.025C20.9816 2.97 21.1785 2.94 21.3755 2.94C22.1843 2.94 22.8385 3.405 22.8385 3.955C22.8385 3.97 22.8244 4.02 22.8244 4.035C22.8103 4.2 22.9158 4.36 23.0987 4.46C23.2816 4.56 23.5207 4.59 23.7458 4.54C23.9146 4.5 24.0553 4.485 24.1889 4.485C24.9978 4.485 25.652 4.95 25.652 5.525C25.652 5.61 25.6309 5.7 25.5887 5.81C25.5324 5.955 25.5675 6.11 25.6871 6.235C25.8067 6.36 26.0036 6.435 26.2147 6.445C26.9813 6.48 27.5792 6.94 27.5792 7.485C27.5792 8.59 22.5993 10.125 14.4894 10.125C6.37958 10.125 1.39971 8.585 1.39971 7.485C1.40674 6.935 2.00461 6.475 2.77832 6.44Z" fill="#C25757"/>
<path d="M5.48775 7.97083C5.57832 7.99028 5.66135 8 5.75192 8C6.05382 8 6.34063 7.87847 6.46139 7.68889C6.51422 7.60625 6.99727 6.86737 8.12186 6.98889C8.52942 7.03264 8.9219 6.85278 8.98983 6.58542C9.05775 6.31806 8.77849 6.07015 8.36338 6.0264C6.45384 5.82709 5.35944 6.80417 5.04999 7.34861C4.89904 7.60139 5.10283 7.87847 5.48775 7.97083Z" fill="#C25757"/>
<path d="M12.1164 7.75827C12.3268 7.92179 12.7476 7.96445 13.053 7.85781C13.1616 7.82226 14.1049 7.51654 14.8378 7.89691C14.9668 7.96445 15.1432 8 15.3197 8C15.4961 8 15.6658 7.96445 15.8015 7.89691C16.0662 7.75827 16.0662 7.53431 15.8015 7.39568C14.5731 6.75225 12.9783 7.03308 12.3065 7.2677C11.9875 7.37435 11.9061 7.59475 12.1164 7.75827Z" fill="#C25757"/>
<path d="M10.4913 5.9709C10.5742 5.9903 10.6647 6 10.7552 6C11.0643 6 11.3508 5.87877 11.4639 5.6848C11.479 5.65085 11.9465 4.86526 13.1227 4.9865C13.5374 5.03014 13.922 4.85072 13.9898 4.58401C14.0577 4.31729 13.7787 4.06998 13.364 4.02634C11.4564 3.82751 10.3631 4.80222 10.0539 5.34534C9.89559 5.60236 10.0992 5.87877 10.4913 5.9709Z" fill="#C25757"/>
<path d="M21.8711 6.98403C23.0118 6.86737 23.4801 7.59653 23.533 7.68403C23.6463 7.87847 23.9333 8 24.243 8C24.3337 8 24.4168 7.99028 24.5074 7.97083C24.9002 7.87847 25.0966 7.59653 24.9531 7.34861C24.6434 6.80417 23.5481 5.82709 21.6369 6.0264C21.229 6.07015 20.942 6.31806 21.01 6.58542C21.0704 6.84792 21.4632 7.02778 21.8711 6.98403Z" fill="#C25757"/>
<path d="M16.8711 4.98403C18.0042 4.86251 18.4801 5.59653 18.533 5.68403C18.6463 5.87847 18.9333 6 19.243 6C19.3337 6 19.4168 5.99028 19.5074 5.97083C19.9002 5.87847 20.0966 5.59653 19.9531 5.34861C19.6434 4.80417 18.5481 3.82709 16.637 4.0264C16.229 4.07015 15.942 4.31806 16.01 4.58542C16.0704 4.84792 16.4632 5.02778 16.8711 4.98403Z" fill="#C25757"/>
</svg>
