<svg width="15" height="15" viewBox="0 0 15 15" fill="none" xmlns="http://www.w3.org/2000/svg">
<path d="M8.12953 10.8439C7.94625 11.0534 7.94625 11.3925 8.12953 11.6014C8.31284 11.8109 8.60953 11.8109 8.79235 11.6014L12.0262 7.90501C12.1238 7.79356 12.1655 7.64518 12.1589 7.49944C12.1655 7.35319 12.1237 7.20535 12.0262 7.09392L8.79235 3.39804C8.60953 3.18857 8.31235 3.18857 8.12953 3.39804C7.94625 3.60751 7.94625 3.94661 8.12953 4.15552L10.5872 6.96426H0.46875C0.21 6.96429 0 7.20429 0 7.5C0 7.79571 0.21 8.03571 0.46875 8.03571H10.5872L8.12953 10.8439ZM13.125 0H3.75C2.71453 0 1.875 0.959468 1.875 2.14286V4.28571H2.8125V2.14286C2.8125 1.55143 3.23203 1.07143 3.75 1.07143H13.125C13.643 1.07143 14.0625 1.55143 14.0625 2.14286V12.8571C14.0625 13.4486 13.643 13.9286 13.125 13.9286H3.75C3.23203 13.9286 2.8125 13.4491 2.8125 12.8571V10.7143H1.875V12.8571C1.875 14.0405 2.71453 15 3.75 15H13.125C14.1605 15 15 14.0405 15 12.8571V2.14286C15 0.959468 14.1605 0 13.125 0Z" fill="#D2D2D2" fill-opacity="0.7"/>
</svg>
