<svg width="9" height="9" viewBox="0 0 9 9" fill="none" xmlns="http://www.w3.org/2000/svg">
<path d="M8.37931 3.87931H5.12069V0.62069C5.12069 0.27931 4.84138 0 4.5 0C4.15862 0 3.87931 0.27931 3.87931 0.62069V3.87931H0.62069C0.27931 3.87931 0 4.15862 0 4.5C0 4.84138 0.27931 5.12069 0.62069 5.12069H3.87931V8.37931C3.87931 8.72069 4.15862 9 4.5 9C4.84138 9 5.12069 8.72069 5.12069 8.37931V5.12069H8.37931C8.72069 5.12069 9 4.84138 9 4.5C9 4.15862 8.72069 3.87931 8.37931 3.87931Z" fill="#D2D2D2" fill-opacity="0.7"/>
</svg>
